<svg version="1.0" xmlns="http://www.w3.org/2000/svg" width="100" height="100" xml:space="preserve"><path fill="#BDBDBD" d="m15 20-5-5 5-4.999 5 5zM30 21.668l-3.334-3.334L30 15l3.335 3.334zM38.335 40 35 36.669l3.333-3.334 3.335 3.332zM45 26.667l-5-5 5-5 5 5zM21.667 38.335l-5-5 5-5 5 5zM16.666 53.334 13.333 50l3.334-3.333L20 50.001z"/><path fill="#29B6F6" d="M73.333 56.666c-3.263-7.832-10.985-13.333-20-13.333-12.421 0-22.825 8.501-25.794 20h-4.206C15.972 63.332 10 69.303 10 76.666S15.972 90 23.333 90h50C82.539 90 90 82.539 90 73.332c0-9.205-7.461-16.666-16.667-16.666zm0 26.666h-50c-3.679 0-6.666-2.994-6.666-6.668a6.67 6.67 0 0 1 6.666-6.666h10c0-11.049 8.955-20 20-20 7.702 0 13.991 5.854 14.831 13.332h5.169c5.515 0 10 4.486 10 10 0 5.518-4.485 10.002-10 10.002z"/><path fill="#FFCA28" d="M53.333 43.333c2.018 0 3.964.289 5.816.805a13.216 13.216 0 0 1-2.381-7.569c0-3.576 1.425-6.809 3.721-9.205 1.712 9.576 9.245 17.109 18.815 18.822-2.394 2.292-5.625 3.717-9.203 3.717-.474 0-.924-.084-1.381-.137a21.652 21.652 0 0 1 4.435 6.516C82.106 54.9 89.107 47.65 90 38.549a16.596 16.596 0 0 1-6.564 1.354c-9.207 0-16.668-7.461-16.668-16.668 0-2.333.488-4.551 1.354-6.568-10.121.996-18.021 9.525-18.021 19.902 0 2.406.445 4.711 1.227 6.844.662-.05 1.33-.08 2.005-.08z"/></svg>